<?xml version="1.0" encoding="UTF-8" standalone="no"?>
<svg
   xmlns:dc="http://purl.org/dc/elements/1.1/"
   xmlns:cc="http://creativecommons.org/ns#"
   xmlns:rdf="http://www.w3.org/1999/02/22-rdf-syntax-ns#"
   xmlns:svg="http://www.w3.org/2000/svg"
   xmlns="http://www.w3.org/2000/svg"
   xmlns:sodipodi="http://sodipodi.sourceforge.net/DTD/sodipodi-0.dtd"
   xmlns:inkscape="http://www.inkscape.org/namespaces/inkscape"
   inkscape:version="1.0 (4035a4fb49, 2020-05-01)"
   sodipodi:docname="Braille_cell.svg"
   xml:space="preserve"
   style="overflow:visible;enable-background:new 0 0 155 216;"
   viewBox="0 0 155 216"
   height="216"
   width="155"
   id="Layer_1"
   version="1.1"><metadata
   id="metadata45"><rdf:RDF><cc:Work
       rdf:about=""><dc:format>image/svg+xml</dc:format><dc:type
         rdf:resource="http://purl.org/dc/dcmitype/StillImage" /></cc:Work></rdf:RDF></metadata><defs
   id="defs43" /><sodipodi:namedview
   inkscape:current-layer="Layer_1"
   inkscape:window-maximized="1"
   inkscape:window-y="-9"
   inkscape:window-x="-9"
   inkscape:cy="112.16408"
   inkscape:cx="78.626211"
   inkscape:zoom="2.7171233"
   showgrid="false"
   id="namedview41"
   inkscape:window-height="1001"
   inkscape:window-width="1920"
   inkscape:pageshadow="2"
   inkscape:pageopacity="0"
   guidetolerance="10"
   gridtolerance="10"
   objecttolerance="10"
   borderopacity="1"
   bordercolor="#666666"
   pagecolor="#ffffff" />
<rect
   id="rect2"
   height="215"
   width="154"
   style="fill:#FFFFFF;stroke:#000000;"
   y="0.5"
   x="0.5" />
<ellipse
   ry="23.166616"
   rx="25.894087"
   id="circle4"
   cy="38.287148"
   cx="44.409943"
   style="fill:none;stroke:#000000;stroke-width:1.63283" />
<ellipse
   ry="22.592604"
   rx="26.439264"
   id="circle6"
   cy="38.51088"
   cx="109.70558"
   style="fill:none;stroke:#000000;stroke-width:1.68556" />
<ellipse
   ry="22.394398"
   rx="25.030951"
   id="circle8"
   cy="109.10271"
   cx="44.409943"
   style="fill:none;stroke:#000000;stroke-width:1.63283" />
<ellipse
   ry="22.592604"
   rx="26.439264"
   id="circle10"
   cy="110.1637"
   cx="109.70558"
   style="fill:none;stroke:#000000;stroke-width:1.68556" />
<ellipse
   ry="22.394398"
   rx="25.030951"
   id="circle12"
   cy="177.37032"
   cx="44.409943"
   style="fill:none;stroke:#000000;stroke-width:1.63283" />
<ellipse
   ry="22.592604"
   rx="26.439264"
   id="circle14"
   cy="179.26855"
   cx="109.70558"
   style="fill:none;stroke:#000000;stroke-width:1.68556" />
<g
   transform="matrix(1.8233975,0,0,1.5581106,-87.525865,-84.441692)"
   id="g18">
	<path
   id="path16"
   d="m 112.322,162.566 c -0.192,-0.031 -0.416,-0.031 -0.64,-0.031 -4.608,0 -6.977,2.559 -7.68,6.559 l 0.096,-0.063 c 1.216,-1.504 2.88,-2.112 4.672,-2.112 3.488,0 5.216,2.592 5.216,4.961 0,2.879 -2.24,5.791 -6.017,5.791 -2.911,0 -5.567,-1.951 -5.567,-6.848 0,-4.031 1.761,-6.496 3.328,-7.808 1.536,-1.248 3.776,-1.888 6.592,-1.888 z m 0.128,9.344 c 0,-1.951 -1.568,-3.775 -3.968,-3.775 -2.464,0 -4.544,1.664 -4.544,3.008 0,1.855 0.736,5.312 4.352,5.312 2.689,-0.001 4.16,-2.433 4.16,-4.545 z" />
</g>
<g
   transform="matrix(1.7262725,0,0,1.544441,-36.436575,-33.915474)"
   id="g22">
	<path
   id="path20"
   d="m 46.735,39.937 h -0.064 l -2.624,1.472 -0.32,-1.248 3.008,-1.664 h 1.536 v 16.448 h -1.536 z" />
</g>
<g
   transform="matrix(1.7262725,0,0,1.544441,-36.436575,-57.696918)"
   id="g26">
	<path
   id="path24"
   d="m 41.68,116.068 v -0.992 l 1.664,-1.439 c 5.792,-5.121 7.296,-6.657 7.296,-8.864 0,-1.632 -0.832,-3.616 -3.936,-3.616 -1.6,0 -3.072,0.768 -3.968,1.568 l -0.544,-1.056 c 1.376,-1.216 3.072,-1.856 4.832,-1.856 4.064,0 5.184,2.976 5.184,4.576 0,3.2 -2.304,5.215 -7.2,9.504 l -1.056,0.799 v 0.064 h 8.736 v 1.312 z" />
</g>
<g
   transform="matrix(1.7262725,0,0,1.544441,-36.436575,-84.026376)"
   id="g30">
	<path
   id="path28"
   d="m 42.352,175.207 c 0.704,0.48 2.336,1.184 4.064,1.184 3.968,0 4.48,-2.688 4.48,-3.488 -0.064,-2.72 -2.88,-3.52 -5.28,-3.52 h -1.312 v -1.248 h 1.408 c 2.112,0 4.448,-0.863 4.448,-2.977 0,-1.151 -0.768,-2.688 -3.456,-2.688 -1.44,0 -2.816,0.576 -3.68,1.217 l -0.48,-1.152 c 0.864,-0.704 2.656,-1.376 4.384,-1.376 3.68,0 4.8,2.112 4.8,3.808 0,1.633 -1.12,3.04 -3.2,3.712 v 0.063 c 2.368,0.449 3.968,2.145 3.968,4.16 0,2.209 -1.792,4.769 -6.208,4.769 -2.048,0 -3.712,-0.704 -4.448,-1.216 z" />
</g>
<g
   transform="matrix(1.8233975,0,0,1.5581106,-87.525865,-34.33079)"
   id="g34">
	<path
   id="path32"
   d="m 109.826,54.945 v -4.512 h -8.864 V 49.41 l 9.088,-10.912 h 1.312 v 10.688 h 2.624 v 1.248 h -2.624 v 4.512 h -1.536 z m 0,-5.759 v -7.2 l 0.032,-1.6 -0.064,-0.032 c -0.32,0.512 -0.672,1.024 -0.992,1.472 l -6.271,7.296 v 0.064 z" />
</g>
<g
   transform="matrix(1.8233975,0,0,1.5581106,-87.525865,-58.112234)"
   id="g38">
	<path
   id="path36"
   d="m 113.187,101.379 h -6.816 l -0.703,4.736 c 0.512,-0.096 1.055,-0.192 1.823,-0.192 3.616,0 6.017,1.984 6.017,5.023 0,3.168 -2.656,5.377 -6.017,5.377 -2.08,0 -3.616,-0.673 -4.384,-1.152 l 0.544,-1.217 c 0.735,0.48 2.144,1.057 3.903,1.057 2.496,0 4.353,-1.792 4.353,-3.744 0,-2.271 -1.312,-4.064 -4.991,-4.064 -1.057,0 -2.049,0.16 -2.721,0.256 l 0.96,-7.392 h 8.032 z" />
</g>
</svg>
